<svg width="200" height="200" viewBox="0 0 200 200" fill="none" xmlns="http://www.w3.org/2000/svg">
<circle cx="100" cy="100" r="95" stroke="black" stroke-width="10"/>
<path d="M61.6682 155V40.9624H104.452C113.164 40.9624 120.139 42.1292 125.377 44.4629C130.666 46.7447 134.789 50.297 137.745 55.1199C140.753 59.8909 142.257 64.8953 142.257 70.133C142.257 75.0077 140.934 79.5973 138.29 83.9015C135.645 88.2058 131.652 91.6804 126.31 94.3252C133.208 96.3477 138.497 99.7963 142.179 104.671C145.913 109.546 147.78 115.302 147.78 121.94C147.78 127.281 146.639 132.26 144.357 136.875C142.127 141.439 139.353 144.965 136.034 147.455C132.715 149.944 128.54 151.837 123.51 153.133C118.531 154.378 112.412 155 105.152 155H61.6682ZM76.7592 88.88H101.418C108.108 88.88 112.905 88.4392 115.809 87.5576C119.646 86.4167 122.525 84.5238 124.443 81.879C126.414 79.2342 127.399 75.9153 127.399 71.9221C127.399 68.1364 126.492 64.8175 124.677 61.9652C122.862 59.0612 120.269 57.0905 116.898 56.0533C113.527 54.9643 107.745 54.4198 99.5511 54.4198H76.7592V88.88ZM76.7592 141.543H105.152C110.027 141.543 113.449 141.361 115.42 140.998C118.894 140.376 121.799 139.339 124.132 137.887C126.466 136.435 128.385 134.334 129.889 131.586C131.392 128.785 132.144 125.57 132.144 121.94C132.144 117.688 131.055 114.006 128.877 110.894C126.699 107.731 123.665 105.527 119.776 104.282C115.939 102.986 110.39 102.337 103.129 102.337H76.7592V141.543Z" fill="black"/>
</svg>
