<svg width="200" height="200" viewBox="0 0 200 200" fill="none" xmlns="http://www.w3.org/2000/svg">
<path d="M10.5822 111.161L19.4561 110.385C19.8764 113.941 20.8462 116.866 22.3656 119.162C23.9173 121.425 26.3095 123.267 29.5423 124.69C32.775 126.08 36.4119 126.775 40.4528 126.775C44.0411 126.775 47.2092 126.241 49.9571 125.175C52.7049 124.108 54.7415 122.653 56.067 120.81C57.4247 118.935 58.1036 116.899 58.1036 114.7C58.1036 112.47 57.457 110.53 56.1639 108.882C54.8708 107.201 52.7372 105.794 49.7631 104.663C47.8558 103.919 43.6371 102.772 37.1069 101.22C30.5768 99.6359 26.0024 98.1488 23.3839 96.7588C19.9895 94.9807 17.4518 92.7825 15.7708 90.1639C14.1221 87.5131 13.2977 84.5551 13.2977 81.2901C13.2977 77.7017 14.316 74.3558 16.3527 71.2524C18.3893 68.1166 21.3634 65.7405 25.275 64.1242C29.1867 62.5078 33.5347 61.6996 38.3192 61.6996C43.5886 61.6996 48.2276 62.5563 52.2362 64.2696C56.2771 65.9507 59.3805 68.4399 61.5465 71.7373C63.7124 75.0347 64.8762 78.7685 65.0378 82.9388L56.0185 83.6176C55.5336 79.1241 53.8849 75.7297 51.0724 73.4345C48.2922 71.1392 44.1705 69.9916 38.7071 69.9916C33.0175 69.9916 28.8634 71.0422 26.2449 73.1435C23.6587 75.2125 22.3656 77.7179 22.3656 80.6597C22.3656 83.2135 23.2869 85.3148 25.1296 86.9635C26.9399 88.6122 31.6597 90.3094 39.289 92.0551C46.9506 93.7685 52.2038 95.2717 55.0486 96.5648C59.1866 98.4721 62.2415 100.897 64.2135 103.838C66.1855 106.748 67.1715 110.11 67.1715 113.925C67.1715 117.707 66.0885 121.279 63.9225 124.641C61.7566 127.971 58.637 130.573 54.5637 132.448C50.5228 134.291 45.9646 135.212 40.8892 135.212C34.456 135.212 29.0574 134.275 24.6932 132.4C20.3613 130.525 16.9507 127.712 14.4615 123.962C12.0046 120.18 10.7115 115.913 10.5822 111.161ZM104.461 134V116.98H73.6208V108.979L106.061 62.9119H113.19V108.979H122.791V116.98H113.19V134H104.461ZM104.461 108.979V76.9258L82.2037 108.979H104.461ZM132.101 111.161L140.975 110.385C141.395 113.941 142.365 116.866 143.885 119.162C145.436 121.425 147.828 123.267 151.061 124.69C154.294 126.08 157.931 126.775 161.972 126.775C165.56 126.775 168.728 126.241 171.476 125.175C174.224 124.108 176.261 122.653 177.586 120.81C178.944 118.935 179.623 116.899 179.623 114.7C179.623 112.47 178.976 110.53 177.683 108.882C176.39 107.201 174.256 105.794 171.282 104.663C169.375 103.919 165.156 102.772 158.626 101.22C152.096 99.6359 147.521 98.1488 144.903 96.7588C141.508 94.9807 138.971 92.7825 137.29 90.1639C135.641 87.5131 134.817 84.5551 134.817 81.2901C134.817 77.7017 135.835 74.3558 137.872 71.2524C139.908 68.1166 142.882 65.7405 146.794 64.1242C150.706 62.5078 155.054 61.6996 159.838 61.6996C165.108 61.6996 169.747 62.5563 173.755 64.2696C177.796 65.9507 180.899 68.4399 183.065 71.7373C185.231 75.0347 186.395 78.7685 186.557 82.9388L177.537 83.6176C177.053 79.1241 175.404 75.7297 172.591 73.4345C169.811 71.1392 165.689 69.9916 160.226 69.9916C154.536 69.9916 150.382 71.0422 147.764 73.1435C145.178 75.2125 143.885 77.7179 143.885 80.6597C143.885 83.2135 144.806 85.3148 146.649 86.9635C148.459 88.6122 153.179 90.3094 160.808 92.0551C168.47 93.7685 173.723 95.2717 176.568 96.5648C180.706 98.4721 183.76 100.897 185.732 103.838C187.704 106.748 188.69 110.11 188.69 113.925C188.69 117.707 187.607 121.279 185.442 124.641C183.276 127.971 180.156 130.573 176.083 132.448C172.042 134.291 167.484 135.212 162.408 135.212C155.975 135.212 150.576 134.275 146.212 132.4C141.88 130.525 138.47 127.712 135.98 123.962C133.524 120.18 132.23 115.913 132.101 111.161Z" fill="black"/>
</svg>
