<svg width="877" height="200" viewBox="0 0 877 200" fill="none" xmlns="http://www.w3.org/2000/svg">
<path d="M831.571 125.434C832.072 124.833 832.573 124.032 833.174 123.431C834.175 122.029 835.376 121.228 836.778 122.53C837.479 123.131 845.089 130.441 854.402 130.441C862.813 130.441 868.32 125.134 868.32 118.925C868.32 111.716 862.112 107.41 850.096 102.503C838.581 97.4967 831.772 92.7904 831.772 80.9747C831.772 73.8652 837.379 62.45 854.001 62.45C864.215 62.45 871.825 67.757 871.825 67.757C872.426 68.0574 873.728 69.3592 872.426 71.2617C872.025 71.8625 871.625 72.6636 871.124 73.2644C870.223 74.7664 869.121 75.1669 867.519 74.1656C866.818 73.765 860.21 69.3592 853.801 69.3592C842.786 69.3592 839.382 76.4686 839.382 80.8745C839.382 87.8839 844.689 91.8892 853.501 95.5941C867.619 101.302 876.631 106.609 876.631 118.725C876.631 129.539 866.318 137.45 854.101 137.45C841.785 137.45 833.474 130.24 832.072 129.039C831.371 128.238 830.27 127.437 831.571 125.434Z" fill="#FF0000"/>
<path d="M742.293 64.05C742.493 63.25 743.293 62.55 744.193 62.55H745.893C746.593 62.55 747.493 63.05 747.693 63.65L768.293 121.05C768.493 121.05 768.593 121.05 768.793 121.05L789.093 63.65C789.293 63.05 790.093 62.55 790.893 62.55H792.593C793.393 62.55 794.293 63.15 794.493 64.05L807.893 134.05C808.193 135.55 807.593 136.55 805.993 136.55H801.793C800.993 136.55 800.093 135.85 799.893 135.05L790.593 81.4501C790.493 81.4501 790.293 81.4501 790.193 81.4501L770.993 136.45C770.793 137.05 769.893 137.55 769.193 137.55H767.293C766.693 137.55 765.693 137.05 765.493 136.45L746.093 81.4501C745.993 81.4501 745.793 81.4501 745.693 81.4501L736.593 135.05C736.493 135.75 735.593 136.55 734.693 136.55H730.493C728.893 136.55 728.293 135.55 728.593 134.05L742.293 64.05Z" fill="#FF0000"/>
<path d="M679.6 62.55C690.1 62.55 697.7 66.15 704.8 72.25C705.6 73.05 705.7 74.35 704.9 75.15L702.1 77.9501C701.3 78.9501 700.4 78.8501 699.4 77.8501C694 73.1501 686.6 70.05 679.5 70.05C663.1 70.05 650.5 83.85 650.5 100.05C650.5 116.05 663.1 129.95 679.5 129.95C688.6 129.95 693.9 126.35 699.4 122.15C700.4 121.35 701.3 121.45 701.9 121.85L705 124.65C705.8 125.25 705.6 126.75 704.9 127.45C697.8 134.35 688.9 137.55 679.6 137.55C658.8 137.55 642 120.95 642 100.15C642 79.35 658.8 62.55 679.6 62.55Z" fill="#FF0000"/>
<path d="M616.939 137.55C617.454 137.55 617.763 137.344 617.969 137.035C618.175 136.726 618.175 136.211 617.969 135.799L602.311 106.851L603.341 106.439C613.025 102.524 619 94.3855 619 85.2169C619 72.6487 608.698 62.45 596.027 62.45H563.061C562.34 62.45 561.928 63.0681 561.928 63.5831V136.417C561.928 136.932 562.34 137.55 563.061 137.55H576.144C576.659 137.55 577.277 137.035 577.277 136.417V107.366H586.446L601.384 137.035C601.487 137.138 601.796 137.447 602.208 137.447H616.939V137.55ZM594.584 95.4157H577.277V76.2543H594.584C599.735 76.2543 603.959 80.4781 603.959 85.629C603.959 90.8829 599.529 95.4157 594.584 95.4157Z" fill="black"/>
<path d="M537.692 137.55C538.413 137.55 538.825 136.932 538.825 136.417V124.467C538.825 123.952 538.413 123.333 537.692 123.333H506.271V106.439H532.335C532.85 106.439 533.468 106.026 533.468 105.305V93.4583C533.468 92.9432 532.953 92.3251 532.335 92.3251H506.271V76.6664H537.795C538.516 76.6664 538.928 76.1513 538.928 75.5332V63.5831C538.928 63.0681 538.516 62.45 537.795 62.45H492.261C491.54 62.45 491.127 62.965 491.127 63.5831V136.417C491.127 136.932 491.54 137.55 492.261 137.55H537.692Z" fill="black"/>
<path d="M468.127 75.6362V63.5831C468.127 63.0681 467.715 62.45 466.994 62.45H418.163C417.442 62.45 417.03 62.965 417.03 63.5831V75.5332C417.03 76.0483 417.442 76.6664 418.163 76.6664H434.852V136.417C434.852 136.932 435.367 137.55 435.986 137.55H449.172C449.687 137.55 450.305 137.035 450.305 136.417V76.6664H466.994C467.715 76.6664 468.127 76.1513 468.127 75.6362Z" fill="black"/>
<path d="M392.898 76.6664C393.619 76.6664 394.031 76.1513 394.031 75.5332V63.5831C394.031 63.0681 393.619 62.45 392.898 62.45H347.364C346.643 62.45 346.23 62.965 346.23 63.5831V136.417C346.23 136.932 346.643 137.55 347.364 137.55H360.344C360.859 137.55 361.477 137.035 361.477 136.417V108.705H387.541C388.056 108.705 388.674 108.19 388.674 107.572V95.6217C388.674 95.1066 388.159 94.4885 387.541 94.4885H361.477V76.6664H392.898Z" fill="black"/>
<path d="M322.163 137.55C322.57 137.55 322.976 137.448 323.078 137.143C323.281 136.839 323.281 136.534 323.078 136.127L289.136 63.0597C288.932 62.7548 288.526 62.45 288.221 62.45H287.103C286.798 62.45 286.29 62.7548 286.189 63.0597L252.246 136.127C252.043 136.534 252.043 136.839 252.246 137.143C252.449 137.448 252.754 137.55 253.161 137.55H265.051C266.88 137.55 267.693 136.432 268.099 135.517L272.266 126.27H303.058L307.225 135.416C308.139 137.245 308.647 137.55 310.172 137.55H322.163ZM277.855 113.465L286.9 93.5468H288.119L288.526 94.1566L297.469 113.465H277.855Z" fill="black"/>
<path d="M227.033 137.55C227.548 137.55 227.857 137.344 228.063 137.035C228.269 136.726 228.269 136.211 228.063 135.799L212.404 106.851L213.435 106.439C223.118 102.524 229.093 94.3855 229.093 85.2169C229.093 72.6487 218.792 62.45 206.12 62.45H173.155C172.434 62.45 172.021 63.0681 172.021 63.5831V136.417C172.021 136.932 172.434 137.55 173.155 137.55H186.238C186.753 137.55 187.371 137.035 187.371 136.417V107.366H196.54L211.477 137.035C211.58 137.138 211.889 137.447 212.301 137.447H227.033V137.55ZM204.678 95.4157H187.371V76.2543H204.678C209.829 76.2543 214.053 80.4781 214.053 85.629C214.053 90.8829 209.623 95.4157 204.678 95.4157Z" fill="black"/>
<path d="M123.322 137.55C133.022 137.55 141.822 134.05 148.622 127.45C149.022 127.05 149.022 126.25 148.722 125.95L140.422 117.05C140.322 116.85 140.022 116.75 139.722 116.75C139.422 116.75 139.122 116.85 138.922 116.95C135.022 120.35 129.422 122.35 124.022 122.35C111.722 122.35 102.022 112.35 102.022 99.6499C102.022 86.7499 111.622 76.6499 123.922 76.6499C129.422 76.6499 134.922 78.75 139.022 82.35C139.422 82.75 140.022 82.75 140.322 82.35L148.622 73.7499C148.822 73.5499 149.022 73.25 149.022 72.95C149.022 72.65 148.922 72.3499 148.622 72.1499C141.222 65.4499 133.522 62.45 123.422 62.45C102.622 62.55 85.8218 79.4499 85.8218 100.15C85.8218 120.75 102.622 137.55 123.322 137.55Z" fill="black"/>
<g clip-path="url(#clip0)">
<path d="M160.227 139.13C159.937 138.744 158.777 138.647 158.198 139.13C149.019 147.053 135.879 151.691 123.125 151.691C94.6227 151.691 72.2072 129.082 71.4343 99.9034C72.2072 70.7246 94.6227 48.1159 123.125 48.1159C135.975 48.1159 149.115 52.8502 158.198 60.6763C158.777 61.1594 159.937 61.0628 160.227 60.6763L179.55 40.0966C179.937 39.7101 179.937 38.4541 179.357 37.8744C172.884 31.5942 165.347 26.4734 157.231 22.6087L155.106 21.9324L155.492 4.34783C150.082 2.41546 144.478 0.869565 138.874 -0.0966187L130.468 15.0725L128.439 14.8792C122.932 14.3961 119.067 14.3961 113.56 14.8792L111.531 15.1691L103.125 -2.98023e-07C97.5213 0.966183 91.9174 2.51208 86.4101 4.44444L86.7 21.7391L84.8642 22.6087C80.5164 24.6377 76.1686 27.1498 72.014 30.0483L70.3715 31.2077L55.4923 22.3188C51.0478 25.9903 46.9899 30.1449 43.3184 34.4928L52.2072 49.372L51.0478 51.0145C49.4053 53.3333 47.8594 55.8454 46.1203 59.0338L44.7676 61.6425C44.3812 62.4155 43.9947 63.0918 43.6082 63.8647L42.7386 65.7005L25.444 65.5072C23.5116 70.9179 21.9657 76.5217 20.9995 82.1256L36.1686 90.5314L35.9754 92.5604C35.6855 95.3623 35.5889 97.6812 35.5889 100C35.5889 102.319 35.6855 104.638 35.9754 107.44L36.1686 109.469L20.9995 117.874C21.9657 123.478 23.5116 129.082 25.444 134.493L42.7386 134.203L43.6082 136.039C43.9947 136.812 44.3812 137.488 44.7676 138.261L46.1203 140.87C47.8594 144.058 49.4053 146.57 51.0478 148.889L52.2072 150.531L43.3184 165.411C46.9899 169.758 51.1444 173.913 55.4923 177.585L70.3715 168.696L72.014 169.855C76.1686 172.754 80.5164 175.266 84.8642 177.295L86.7 178.164L86.4101 195.556C91.8208 197.488 97.4246 199.034 103.028 200L111.434 184.831L113.463 185.024C118.971 185.507 122.835 185.507 128.343 185.024L130.371 184.831L138.777 200C144.381 199.034 149.985 197.488 155.396 195.556L155.009 177.971L157.135 177.295C165.251 173.527 172.787 168.309 179.26 162.029C179.84 161.449 179.84 160.193 179.454 159.807L160.227 139.13Z" fill="#FF0000"/>
</g>
<defs>
<clipPath id="clip0">
<rect width="200" height="200" fill="white" transform="translate(0.419922)"/>
</clipPath>
</defs>
</svg>
