<?xml version="1.0" encoding="UTF-8" standalone="no"?>
<!-- Generator: Adobe Illustrator 18.1.1, SVG Export Plug-In . SVG Version: 6.00 Build 0)  -->

<svg
   xmlns:dc="http://purl.org/dc/elements/1.1/"
   xmlns:cc="http://creativecommons.org/ns#"
   xmlns:rdf="http://www.w3.org/1999/02/22-rdf-syntax-ns#"
   xmlns:svg="http://www.w3.org/2000/svg"
   xmlns="http://www.w3.org/2000/svg"
   xmlns:sodipodi="http://sodipodi.sourceforge.net/DTD/sodipodi-0.dtd"
   xmlns:inkscape="http://www.inkscape.org/namespaces/inkscape"
   version="1.1"
   id="Layer_1"
   x="0px"
   y="0px"
   viewBox="0 0 100.8 100.8"
   xml:space="preserve"
   sodipodi:docname="sunrise-logo.svg"
   inkscape:version="0.92.3 (2405546, 2018-03-11)"
   width="100.8"
   height="100.8"><metadata
   id="metadata41"><rdf:RDF><cc:Work
       rdf:about=""><dc:format>image/svg+xml</dc:format><dc:type
         rdf:resource="http://purl.org/dc/dcmitype/StillImage" /><dc:title></dc:title></cc:Work></rdf:RDF></metadata><defs
   id="defs39" /><sodipodi:namedview
   pagecolor="#ffffff"
   bordercolor="#666666"
   borderopacity="1"
   objecttolerance="10"
   gridtolerance="10"
   guidetolerance="10"
   inkscape:pageopacity="0"
   inkscape:pageshadow="2"
   inkscape:window-width="1526"
   inkscape:window-height="906"
   id="namedview37"
   showgrid="false"
   inkscape:zoom="4.3056119"
   inkscape:cx="142.09493"
   inkscape:cy="32.107701"
   inkscape:window-x="2742"
   inkscape:window-y="137"
   inkscape:window-maximized="0"
   inkscape:current-layer="Layer_1" />
<style
   type="text/css"
   id="style2">
	.st0{fill:#333333;}
	.st1{fill:#FDBB41;}
</style>







<path
   class="st1"
   d="M 50.4,83.8 C 31.9,83.8 16.8,68.7 16.8,50.2 16.8,31.7 31.9,16.6 50.4,16.6 68.9,16.6 84,31.7 84,50.2 84,68.7 68.9,83.8 50.4,83.8 Z m 0,-63 C 34.2,20.8 21,34 21,50.2 21,66.4 34.2,79.6 50.4,79.6 66.6,79.6 79.8,66.4 79.8,50.2 79.8,34 66.6,20.8 50.4,20.8 Z"
   id="path18"
   inkscape:connector-curvature="0"
   style="fill:#fdbb41" />
<rect
   x="48.299999"
   y="0"
   class="st1"
   width="4.1999998"
   height="13"
   id="rect20"
   style="fill:#fdbb41" />
<rect
   x="48.299999"
   y="87.800003"
   class="st1"
   width="4.1999998"
   height="13"
   id="rect22"
   style="fill:#fdbb41" />
<rect
   x="87.800003"
   y="48.299999"
   class="st1"
   width="13"
   height="4.1999998"
   id="rect24"
   style="fill:#fdbb41" />
<rect
   x="0"
   y="48.299999"
   class="st1"
   width="13"
   height="4.1999998"
   id="rect26"
   style="fill:#fdbb41" />
<rect
   x="69.131828"
   y="-50.342129"
   transform="rotate(45)"
   class="st1"
   width="4.1999598"
   height="12.999875"
   id="rect28"
   style="fill:#fdbb41;stroke-width:0.9999904" />
<rect
   x="69.208893"
   y="37.369663"
   transform="rotate(45)"
   class="st1"
   width="4.1999598"
   height="12.999875"
   id="rect30"
   style="fill:#fdbb41;stroke-width:0.9999904" />
<rect
   x="20.914013"
   y="-2.0479517"
   transform="rotate(45)"
   class="st1"
   width="12.999875"
   height="4.1999598"
   id="rect32"
   style="fill:#fdbb41;stroke-width:0.9999904" />
<rect
   x="108.62918"
   y="-2.1108479"
   transform="rotate(44.991897)"
   class="st1"
   width="12.999875"
   height="4.1999598"
   id="rect34"
   style="fill:#fdbb41;stroke-width:0.9999904" />
</svg>